<?xml version="1.0" encoding="UTF-8" standalone="no"?>
<!-- Generator: Adobe Illustrator 19.0.0, SVG Export Plug-In . SVG Version: 6.00 Build 0)  -->

<svg
   xmlns:dc="http://purl.org/dc/elements/1.1/"
   xmlns:cc="http://creativecommons.org/ns#"
   xmlns:rdf="http://www.w3.org/1999/02/22-rdf-syntax-ns#"
   xmlns:svg="http://www.w3.org/2000/svg"
   xmlns="http://www.w3.org/2000/svg"
   xmlns:sodipodi="http://sodipodi.sourceforge.net/DTD/sodipodi-0.dtd"
   xmlns:inkscape="http://www.inkscape.org/namespaces/inkscape"
   version="1.1"
   id="Capa_1"
   x="0px"
   y="0px"
   viewBox="0 0 100 100"
   xml:space="preserve"
   sodipodi:docname="my_user.svg"
   width="100"
   height="100"
   inkscape:version="0.92.1 r15371"><metadata
     id="metadata5428"><rdf:RDF><cc:Work
         rdf:about=""><dc:format>image/svg+xml</dc:format><dc:type
           rdf:resource="http://purl.org/dc/dcmitype/StillImage" /><dc:title></dc:title></cc:Work></rdf:RDF></metadata><defs
     id="defs5426" /><sodipodi:namedview
     pagecolor="#ffffff"
     bordercolor="#666666"
     borderopacity="1"
     objecttolerance="10"
     gridtolerance="10"
     guidetolerance="10"
     inkscape:pageopacity="0"
     inkscape:pageshadow="2"
     inkscape:window-width="1366"
     inkscape:window-height="706"
     id="namedview5424"
     showgrid="false"
     inkscape:zoom="3.9333333"
     inkscape:cx="4.8728976"
     inkscape:cy="37.954369"
     inkscape:window-x="-8"
     inkscape:window-y="-8"
     inkscape:window-maximized="1"
     inkscape:current-layer="Capa_1" /><circle
     style="fill:#ffffff;fill-opacity:0.94117647;stroke:#333330;stroke-width:0.12020886;stroke-linecap:round;stroke-miterlimit:4;stroke-dasharray:none;stroke-opacity:1"
     id="path5430"
     cx="50"
     cy="50"
     r="49.939896" /><path
     d="m 77.412609,61.185333 -14.537174,-6.368 C 61.504348,54.216001 60.652174,53.008 60.652174,51.664 v -4.508 c 0.348479,-0.373333 0.715217,-0.798666 1.09413,-1.268 1.885435,-2.333333 3.396522,-4.930667 4.495218,-7.732 2.147174,-0.862667 3.541087,-2.722667 3.541087,-4.822668 V 27.999999 C 69.782609,26.716 69.234783,25.472 68.26087,24.5 v -7.092 c 0.08521,-0.733333 0.42,-5.098667 -3.183479,-8.7 C 61.951739,5.583999 56.879783,4 50,4 43.120218,4 38.048261,5.583999 34.922608,8.706666 31.319131,12.307999 31.653913,16.674667 31.73913,17.408 V 24.5 c -0.973913,0.972 -1.521739,2.216 -1.521739,3.499999 v 5.333333 c 0,1.622668 0.841522,3.136001 2.278043,4.145334 1.393914,4.836 4.311088,8.48 5.330653,9.649333 V 51.54 c 0,1.290666 -0.803478,2.474666 -2.095435,3.093334 l -13.575435,6.488 C 17.740651,63.232 15,67.277333 15,71.682666 V 76 C 15,82.328001 31.48625,94.209104 50.074464,94.163103 69.044674,94.116156 85,82.328001 85,76 V 71.942667 C 85,67.358666 82.091957,63.236 77.412609,61.185333 Z M 81.956522,76 c 0,1.809333 -10.200494,8.569245 -30.877885,8.569245 -20.677391,0 -33.035158,-6.759912 -33.035158,-8.569245 v -4.317334 c 0,-3.427999 2.133477,-6.578666 5.568043,-8.218666 l 13.575435,-6.488 c 2.271956,-1.086667 3.682609,-3.170667 3.682609,-5.436 v -5.358668 l -0.354567,-0.370665 c -0.03652,-0.03866 -3.766304,-3.992001 -5.18913,-9.420001 l -0.138477,-0.528 -0.518913,-0.293333 c -0.881087,-0.498666 -1.40761,-1.334666 -1.40761,-2.236001 v -5.333333 c 0,-0.748 0.362175,-1.445334 1.019567,-1.966667 l 0.502173,-0.395999 v -8.303999 l -0.01369,-0.174668 c -0.0046,-0.03601 -0.521956,-3.732 2.442392,-6.694666 2.521521,-2.520001 6.825,-3.797334 12.788695,-3.797334 5.942391,0 10.236739,1.268001 12.761304,3.770667 2.962827,2.934666 2.472828,6.689334 2.469783,6.721333 l -0.01369,8.478667 0.502175,0.397333 c 0.657389,0.519999 1.019564,1.217333 1.019564,1.965333 v 5.333333 c 0,1.164001 -0.870435,2.182668 -2.163913,2.532001 l -0.757826,0.204 -0.243478,0.66 c -1.018044,2.774667 -2.468261,5.337333 -4.312609,7.617333 -0.451956,0.561335 -0.891739,1.058668 -1.273696,1.438668 L 57.608697,46.164 v 5.5 c 0,2.36 1.49587,4.481334 3.904783,5.537334 l 14.537175,6.367998 c 3.643043,1.596002 5.90587,4.804001 5.90587,8.373335 z"
     id="path5391"
     inkscape:connector-curvature="0"
     style="fill:#333333;fill-opacity:1;stroke:none;stroke-width:1.42442465"
     sodipodi:nodetypes="ccscccsscccscccssccsccssssscssssccscccccsscccccsccccssccccccsccss" /><g
     id="g5393"
     transform="translate(0,40)" /><g
     id="g5395"
     transform="translate(0,40)" /><g
     id="g5397"
     transform="translate(0,40)" /><g
     id="g5399"
     transform="translate(0,40)" /><g
     id="g5401"
     transform="translate(0,40)" /><g
     id="g5403"
     transform="translate(0,40)" /><g
     id="g5405"
     transform="translate(0,40)" /><g
     id="g5407"
     transform="translate(0,40)" /><g
     id="g5409"
     transform="translate(0,40)" /><g
     id="g5411"
     transform="translate(0,40)" /><g
     id="g5413"
     transform="translate(0,40)" /><g
     id="g5415"
     transform="translate(0,40)" /><g
     id="g5417"
     transform="translate(0,40)" /><g
     id="g5419"
     transform="translate(0,40)" /><g
     id="g5421"
     transform="translate(0,40)" /><path
     style="fill:#333333;fill-opacity:1;stroke:#333330;stroke-width:2;stroke-linecap:round;stroke-miterlimit:4;stroke-dasharray:none;stroke-opacity:1"
     d="M 47.007633,84.426591 C 35.778467,83.890821 24.769562,81.123555 19.553078,77.525442 18.076734,76.507123 18.127894,76.655091 18.13009,73.409737 c 0.0022,-3.213755 0.110976,-3.86591 0.919266,-5.510037 0.426341,-0.867213 0.757984,-1.309242 1.680028,-2.239217 0.698273,-0.704279 1.472879,-1.341955 1.975098,-1.62595 0.454449,-0.256983 4.051876,-2.008549 7.994281,-3.892367 4.56873,-2.183099 7.415597,-3.616136 7.850778,-3.951877 0.794019,-0.612581 1.429266,-1.433671 1.920516,-2.482364 l 0.348832,-0.744666 0.03935,-3.398747 0.03935,-3.398746 -0.782312,-0.923288 C 38.260329,43.05326 36.580734,40.052469 35.688101,37.332808 35.198977,35.842558 35.18,35.809864 34.56636,35.400375 34.212116,35.163984 33.807384,34.748488 33.630525,34.439651 33.32213,33.901123 33.318889,33.861744 33.318889,30.653937 c 0,-3.637355 -2.54e-4,-3.636001 0.94516,-4.490155 l 0.516704,-0.46681 v -4.963318 c 0,-4.032 0.03775,-5.146076 0.201183,-5.937308 0.841613,-4.074509 4.17426,-6.677716 9.827128,-7.676194 1.916057,-0.338438 6.309089,-0.464702 8.474137,-0.243564 5.777508,0.590116 9.421915,2.541358 11.055336,5.919107 0.781735,1.616548 0.819607,1.9719 0.821693,7.709848 l 0.0019,5.169403 0.49847,0.394796 c 0.274158,0.217137 0.620159,0.646171 0.768889,0.953408 0.25756,0.532046 0.268615,0.712228 0.232463,3.788672 l -0.03796,3.230058 -0.354663,0.535567 c -0.408994,0.61761 -0.897824,0.950136 -1.835583,1.248659 -0.659313,0.209882 -0.667662,0.21909 -1.007055,1.110835 -1.180229,3.101017 -3.068481,6.193852 -5.09719,8.348869 l -0.794492,0.843957 v 2.997354 c 0,1.736833 0.06016,3.280643 0.143042,3.670983 0.311865,1.46867 1.348938,2.940441 2.700733,3.83276 0.358594,0.236708 4.084191,1.930072 8.279106,3.76303 4.194916,1.832959 7.941738,3.50752 8.326272,3.721244 1.74132,0.967832 3.212259,2.472712 4.009833,4.102358 0.733203,1.498117 0.843713,2.12222 0.911615,5.148305 l 0.06133,2.733051 -0.379643,0.519431 c -1.676518,2.293828 -8.183484,5.064717 -15.204715,6.474688 -5.469599,1.09838 -13.180776,1.629157 -19.374927,1.33362 z"
     id="path5983"
     inkscape:connector-curvature="0" /></svg>