<?xml version="1.0" encoding="UTF-8" standalone="no"?>
<!-- Generator: Adobe Illustrator 19.0.0, SVG Export Plug-In . SVG Version: 6.00 Build 0)  -->

<svg
   xmlns:dc="http://purl.org/dc/elements/1.1/"
   xmlns:cc="http://creativecommons.org/ns#"
   xmlns:rdf="http://www.w3.org/1999/02/22-rdf-syntax-ns#"
   xmlns:svg="http://www.w3.org/2000/svg"
   xmlns="http://www.w3.org/2000/svg"
   xmlns:sodipodi="http://sodipodi.sourceforge.net/DTD/sodipodi-0.dtd"
   xmlns:inkscape="http://www.inkscape.org/namespaces/inkscape"
   version="1.1"
   id="Capa_1"
   x="0px"
   y="0px"
   viewBox="0 0 100 100"
   xml:space="preserve"
   sodipodi:docname="my_user_small.svg"
   width="100"
   height="100"
   inkscape:version="0.92.1 r15371"><metadata
     id="metadata5428"><rdf:RDF><cc:Work
         rdf:about=""><dc:format>image/svg+xml</dc:format><dc:type
           rdf:resource="http://purl.org/dc/dcmitype/StillImage" /><dc:title /></cc:Work></rdf:RDF></metadata><defs
     id="defs5426" /><sodipodi:namedview
     pagecolor="#ffffff"
     bordercolor="#666666"
     borderopacity="1"
     objecttolerance="10"
     gridtolerance="10"
     guidetolerance="10"
     inkscape:pageopacity="0"
     inkscape:pageshadow="2"
     inkscape:window-width="1366"
     inkscape:window-height="706"
     id="namedview5424"
     showgrid="false"
     inkscape:zoom="2.685"
     inkscape:cx="-44.735033"
     inkscape:cy="24.949522"
     inkscape:window-x="-8"
     inkscape:window-y="-8"
     inkscape:window-maximized="1"
     inkscape:current-layer="g6023" /><g
     id="g5393"
     transform="translate(0,40)" /><g
     id="g5395"
     transform="translate(0,40)" /><g
     id="g5397"
     transform="translate(0,40)" /><g
     id="g5399"
     transform="translate(0,40)" /><g
     id="g5401"
     transform="translate(0,40)" /><g
     id="g5403"
     transform="translate(0,40)" /><g
     id="g5405"
     transform="translate(0,40)" /><g
     id="g5407"
     transform="translate(0,40)" /><g
     id="g5409"
     transform="translate(0,40)" /><g
     id="g5411"
     transform="translate(0,40)" /><g
     id="g5413"
     transform="translate(0,40)" /><g
     id="g5415"
     transform="translate(0,40)" /><g
     id="g5417"
     transform="translate(0,40)" /><g
     id="g5419"
     transform="translate(0,40)" /><g
     id="g5421"
     transform="translate(0,40)" /><g
     id="g6023"
     transform="translate(124.57627,-1.2711865)"><path
       inkscape:connector-curvature="0"
       id="path5983"
       d="m -78.272002,99.934616 c -13.633497,-0.672125 -26.999548,-4.143677 -33.332948,-8.657531 -1.79244,-1.277488 -1.73033,-1.091861 -1.72767,-5.163178 0.002,-4.031676 0.13474,-4.849807 1.1161,-6.912375 0.51762,-1.087924 0.92027,-1.642454 2.03975,-2.809112 0.84777,-0.883522 1.78824,-1.683491 2.39799,-2.039764 0.55174,-0.322387 4.91943,-2.519737 9.705951,-4.882998 5.54696,-2.738711 9.00338,-4.536466 9.531739,-4.957655 0.96403,-0.768487 1.735283,-1.798549 2.331717,-3.114141 l 0.423531,-0.934188 0.04783,-4.263749 0.04772,-4.263748 -0.949825,-1.158271 c -2.252108,-2.746387 -4.291332,-6.510898 -5.375092,-9.922729 -0.59386,-1.869528 -0.61689,-1.910542 -1.36192,-2.424249 -0.4301,-0.296555 -0.92148,-0.817797 -1.13621,-1.205235 -0.37442,-0.675585 -0.37836,-0.724988 -0.37836,-4.749202 0,-4.563083 -3.2e-4,-4.561384 1.14754,-5.632926 l 0.62733,-0.585616 v -6.226513 c 0,-5.058169 0.0459,-6.455784 0.24425,-7.44839 1.02183,-5.1114968 5.06803,-8.3772365 11.931262,-9.6298344 2.326315,-0.4245725 7.659952,-0.5829715 10.288569,-0.3055517 7.014553,0.7403042 11.439268,3.1881495 13.422426,7.4255571 0.949121,2.027969 0.9951,2.473761 0.997637,9.672053 l 0.0025,6.485047 0.605199,0.495274 c 0.332861,0.272399 0.752944,0.810625 0.933519,1.196056 0.312707,0.667455 0.326123,0.893494 0.282233,4.752913 l -0.04614,4.052128 -0.430597,0.671872 c -0.496572,0.774795 -1.090068,1.19195 -2.228616,1.56645 -0.800476,0.263298 -0.810615,0.27485 -1.222672,1.393549 -1.432934,3.890246 -3.725484,7.770226 -6.188568,10.473709 l -0.964601,1.058749 v 3.760198 c 0,2.178868 0.07309,4.115587 0.173667,4.605272 0.378633,1.842455 1.637766,3.6888 3.278993,4.80822 0.435381,0.296952 4.958671,2.421288 10.05178,4.720744 5.093097,2.299459 9.642174,4.400206 10.109037,4.668325 2.11416,1.21415 3.900049,3.102032 4.868389,5.146433 0.890201,1.879396 1.024373,2.662337 1.10681,6.458581 l 0.07442,3.428629 -0.460938,0.651629 c -2.035473,2.877621 -9.935674,6.353718 -18.460245,8.122536 -6.640716,1.377924 -16.002964,2.043786 -23.523366,1.673032 z"
       style="fill:#0365a1;fill-opacity:1;stroke:none;stroke-width:2.46828938;stroke-linecap:round;stroke-miterlimit:4;stroke-dasharray:none;stroke-opacity:1" /></g></svg>